<?xml version="1.0" encoding="UTF-8" standalone="no"?>
<!-- Generator: Adobe Illustrator 16.0.0, SVG Export Plug-In . SVG Version: 6.00 Build 0)  -->

<svg
   version="1.1"
   id="Layer_1"
   x="0px"
   y="0px"
   width="256"
   height="256"
   viewBox="0 0 256 256"
   enable-background="new 0 0 1024 1024"
   xml:space="preserve"
   xmlns="http://www.w3.org/2000/svg"
   xmlns:svg="http://www.w3.org/2000/svg"><defs
   id="defs1" />
<rect
   fill="none"
   width="255.7897"
   height="255.97404"
   id="rect1"
   x="0.21029437"
   y="0.025950011"
   style="stroke-width:0.249885" />

<path
   style="fill:#fc7f7f;stroke-width:0.312768"
   d="m 124.56018,154.46129 c -14.42671,-1.28627 -27.610435,-11.03456 -33.080018,-24.46104 -2.012106,-4.93902 -2.691707,-8.21852 -2.866923,-13.83587 -0.179053,-5.7479 0.265381,-9.11092 1.819783,-13.75445 2.064543,-6.168175 4.930827,-10.782427 9.648388,-15.532825 7.784,-7.837766 17.32561,-11.856398 28.15159,-11.856398 6.45133,0 11.95209,1.311867 17.80872,4.245169 7.67193,3.843451 13.95812,10.144092 17.81399,17.85531 3.07907,6.157614 4.22803,11.631944 3.99686,19.043194 -0.16946,5.46104 -0.78495,8.53929 -2.69233,13.47815 -4.37912,11.34077 -15.08584,20.69678 -27.18677,23.75727 -2.39083,0.60474 -9.61801,1.55344 -10.36588,1.35986 -0.0799,-0.016 -1.458,-0.15998 -3.04741,-0.29757 z"
   id="path2" /><path
   style="fill:#fc7f7f;stroke-width:0.312768"
   d="M 119.21687,255.36604 C 96.236069,253.53839 76.129879,246.73236 57.467622,234.46352 35.744042,220.18225 18.595579,199.1519 9.028102,175.05851 4.7214027,164.21336 1.8057198,152.33249 0.5664186,140.57848 -0.34643092,131.91824 -0.14020047,119.75211 1.0716032,110.85493 5.9439176,75.060626 25.204707,43.584777 55.010602,22.708333 90.531799,-2.1710654 137.41774,-6.9809778 177.61031,10.131048 c 39.39129,16.77078 68.00457,52.533715 75.70608,94.622582 1.55072,8.47466 1.89029,12.60672 1.89029,22.99671 0,10.40551 -0.34372,14.57164 -1.89557,22.99671 -6.57587,35.69142 -27.51689,66.3128 -58.74386,85.89961 -4.60517,2.88867 -14.34613,7.79297 -19.50477,9.82029 -10.80646,4.24693 -21.32152,6.90826 -32.86483,8.31787 -4.0362,0.49275 -19.25153,0.87831 -22.98014,0.58074 z m 84.77207,-56.68097 c 15.56816,-15.52179 25.10352,-35.63223 28.14422,-59.35814 0.78496,-6.1245 0.78976,-21.14634 0.01,-26.75121 C 228.7151,87.964438 218.28159,67.047838 201.06631,50.274019 184.97026,34.590489 165.63705,25.056255 142.66647,21.473578 137.40072,20.652862 123.68767,20.331294 117.8619,20.891237 86.317104,23.929169 58.076482,40.679471 40.281192,66.906733 c -8.816591,12.994362 -14.4259,27.470975 -16.90706,43.634957 -0.959211,6.24368 -1.199014,19.15053 -0.47481,25.49965 2.499386,21.92898 11.632837,42.20276 27.196841,60.36988 3.136781,3.66139 9.411782,10.0281 9.883554,10.0281 0.193441,0 0.302152,-9.51455 0.302152,-26.1831 v -26.18311 l 0.687435,-1.42865 c 0.901658,-1.87181 3.448684,-4.3938 5.408833,-5.35514 l 1.563514,-0.76632 13.553498,-0.08 13.553497,-0.08 3.178986,3.06017 c 15.723878,15.13591 32.994648,17.95818 49.433128,8.07806 3.94364,-2.37015 6.83167,-4.63664 10.6709,-8.37403 l 2.84682,-2.77139 12.9423,0.096 c 12.56551,0.096 12.97893,0.11198 14.20064,0.76632 1.66759,0.89431 4.09152,3.52396 4.93866,5.35881 0.68104,1.47505 0.68104,1.49265 0.76737,28.16195 l 0.0799,26.68609 3.14813,-2.57605 c 1.73154,-1.41586 4.75817,-4.18118 6.72615,-6.14322 z"
   id="path3" /></svg>
